# xmcd
#
# Track frame offsets: 
#        150
#        21775
#        49155
#        71745
#
# Disc length: 1177 seconds
#
# Revision: 0
# Processed by: cddbd v1.5.2PL0 Copyright (c) Steve Scherf et al.
# Submitted via: ExactAudioCopy v0.99pb3
#
DISCID=31049704
DTITLE=Liberty 37 - No Beauty
DYEAR=1998
DGENRE=Org
TTITLE0=No Beauty
TTITLE1=Badger Song
TTITLE2=Francie
TTITLE3=Take It Like A Man
EXTD=
EXTT0=
EXTT1=
EXTT2=
EXTT3=
PLAYORDER=
